<?xml version="1.0" encoding="UTF-8" standalone="no"?>
<!DOCTYPE svg PUBLIC "-//W3C//DTD SVG 1.1//EN" "http://www.w3.org/Graphics/SVG/1.1/DTD/svg11.dtd">
<svg width="100%" height="100%" viewBox="0 0 700 150" version="1.1" xmlns="http://www.w3.org/2000/svg" xmlns:xlink="http://www.w3.org/1999/xlink" xml:space="preserve" xmlns:serif="http://www.serif.com/" style="fill-rule:evenodd;clip-rule:evenodd;stroke-linejoin:round;stroke-miterlimit:2;">
    <g transform="matrix(1,0,0,1,10,8.86264)">
        <g transform="matrix(0.75378,0,0,0.712454,72.3348,26.6044)">
            <rect x="176" y="96" width="463" height="3" style="fill:white;"/>
        </g>
        <g transform="matrix(0.894557,0,0,0.894557,43.5242,-6.63252)">
            <text x="177px" y="103px" style="font-family:'KhmerMN', 'Khmer MN';font-size:120.06px;fill:white;">Coff<tspan x="402.347px 461.38px " y="103px 103px ">ee</tspan></text>
            <text x="520.414px" y="103px" style="font-family:'KhmerMN', 'Khmer MN';font-size:120.06px;fill:rgb(204,145,77);">Py</text>
        </g>
        <g transform="matrix(0.792128,0,0,0.792128,58.5052,17.4635)">
            <text x="213px" y="131px" style="font-family:'Raleway-Regular', 'Raleway', sans-serif;font-size:25.129px;fill:rgb(204,145,77);">P<tspan x="228.379px " y="131px ">Y</tspan>THON C<tspan x="340.353px " y="131px ">O</tspan>FFEE SHOP<tspan x="493.463px 499.871px 514.747px 530.628px 545.756px " y="131px 131px 131px 131px 131px "> SYST</tspan>EM</text>
        </g>
    </g>
    <g transform="matrix(1,0,0,1,-210.873,11.4004)">
        <g transform="matrix(1,0,0,1,297.873,0)">
            <path d="M68.093,15.093L67,16C52.197,29.46 43.45,44.248 45,64C45.55,71.018 46.085,80.071 45,87C43.051,99.451 34.064,103.987 24,111C22.068,112.346 16.304,113.996 14,113C2.392,107.974 0.762,99.642 0.149,87.61C-1.619,52.993 12.336,25.548 40.657,5.8C50.354,-0.962 67.666,-2.714 77.412,3.158L74.947,4.002L73.227,4.591L70.768,5.434C70.768,5.434 69.377,5.71 68.097,6.607L68.088,6.614C68.013,6.667 67.939,6.722 67.865,6.779C67.801,6.828 67.737,6.88 67.673,6.933L67.645,6.958C67.607,6.989 67.571,7.022 67.534,7.055C67.514,7.073 67.494,7.091 67.474,7.109L67.446,7.135C67.335,7.24 67.227,7.351 67.123,7.468C67.097,7.498 67.071,7.527 67.046,7.557C67.004,7.607 66.962,7.659 66.922,7.711C66.851,7.801 66.784,7.895 66.72,7.992C66.703,8.019 66.685,8.045 66.668,8.072C66.654,8.095 66.64,8.118 66.626,8.141C66.52,8.316 66.425,8.501 66.343,8.698C66.327,8.736 66.311,8.775 66.296,8.815C66.254,8.922 66.217,9.032 66.184,9.145C66.147,9.269 66.116,9.396 66.09,9.527C66.028,9.838 65.996,10.17 66,10.526C66.004,10.816 66.031,11.121 66.085,11.442C66.086,11.445 66.087,11.448 66.087,11.452L66.09,11.462C66.093,11.476 66.098,11.492 66.105,11.51C66.108,11.521 66.113,11.533 66.118,11.546L66.125,11.563C66.243,11.86 66.599,12.525 66.969,13.191C67.195,13.598 67.427,14.005 67.613,14.33C67.706,14.492 67.788,14.634 67.852,14.745C67.944,14.904 68,15 68,15L68.093,15.093Z" style="fill:rgb(204,145,77);"/>
        </g>
        <g transform="matrix(1,0,0,1,297.873,0)">
            <path d="M71.386,18.132C71.549,18.193 71.748,18.264 71.969,18.338C72.751,18.602 73.822,18.915 74.661,18.996L74.69,18.999C74.822,19.011 74.949,19.017 75.067,19.016C75.263,19.014 75.467,19.015 75.677,19.011C77.153,18.987 78.911,18.781 79.96,16.446L79.976,16.411L79.991,16.376C80.049,16.244 80.104,16.106 80.157,15.96C80.177,15.905 80.197,15.849 80.216,15.791C80.363,15.355 80.491,14.86 80.593,14.297L80.602,14.248C80.609,14.208 80.616,14.168 80.623,14.127L80.671,13.845L80.674,13.823L80.702,13.665C80.737,13.46 80.772,13.26 80.807,13.064C80.842,12.865 80.876,12.671 80.911,12.482C80.936,12.344 80.96,12.209 80.985,12.076C81.029,11.835 81.073,11.601 81.116,11.376L81.162,11.135C81.218,10.841 81.273,10.562 81.326,10.296C81.392,9.966 81.456,9.658 81.516,9.372C81.681,8.588 81.823,7.969 81.934,7.513C83.667,6.96 86.68,7.564 89.682,10.056C100.369,18.925 104.538,30.562 104.238,43.576C103.547,73.424 94.021,99.354 69,115.995C59.871,122.066 52.791,123.825 39,120.995C43.677,116.949 45.894,114.874 49,111.995C60.719,101.136 60.048,85.773 56.89,70.135C52.681,49.289 59.485,32.426 71.386,18.132Z" style="fill:rgb(204,145,77);"/>
        </g>
        <g transform="matrix(-0.196551,0.217199,-0.213857,-0.180331,634.905,22.0221)">
            <path d="M543,732C543,732 547.131,744.381 559,742L561,737L543,732" style="fill:rgb(204,145,77);"/>
        </g>
        <g transform="matrix(-0.196551,0.217199,0.213857,0.180331,325.799,-239.009)">
            <path d="M543,732C543,732 547.131,744.381 559,742L561,737L543,732" style="fill:rgb(204,145,77);"/>
        </g>
    </g>
</svg>
